<svg>
    <symbol id="pop-corn" xmlns="http://www.w3.org/2000/svg">
        <path d="M12.5859 4.92969C12.5859 5.25329 12.3236 5.51562 12 5.51562C11.6764 5.51562 11.4141 5.25329 11.4141 4.92969C11.4141 4.60608 11.6764 4.34375 12 4.34375C12.3236 4.34375 12.5859 4.60608 12.5859 4.92969Z" />
        <path d="M9.65625 6.6875C9.97985 6.6875 10.2422 6.42518 10.2422 6.10157C10.2422 5.77797 9.97985 5.51562 9.65625 5.51562C9.33265 5.51562 9.07031 5.77797 9.07031 6.10157C9.07031 6.42518 9.33265 6.6875 9.65625 6.6875Z" />
        <path d="M14.9297 6.10157C14.9297 6.42518 14.6674 6.6875 14.3438 6.6875C14.0201 6.6875 13.7578 6.42518 13.7578 6.10157C13.7578 5.77797 14.0201 5.51562 14.3438 5.51562C14.6674 5.51562 14.9297 5.77797 14.9297 6.10157Z" />
        <path fill-rule="evenodd" clip-rule="evenodd" d="M5.60656 11.2918C4.89766 11.0652 4.38281 10.4003 4.38281 9.6172C4.38281 8.80771 4.93301 8.12466 5.67895 7.92134C5.5991 7.72067 5.55469 7.5022 5.55469 7.27345C5.55469 6.68544 5.84488 6.14911 6.31703 5.82595C6.39352 5.36314 6.5773 4.93079 6.85703 4.56044C7.20027 4.10607 7.66328 3.7697 8.20629 3.57786C8.52492 3.0981 8.96414 2.73126 9.48855 2.50942C10.012 2.28794 10.5801 2.22798 11.1456 2.33271C11.5717 2.11388 12.0017 2.00208 12.4268 2.00001C12.9612 1.99845 13.4995 2.1665 13.9972 2.49052C14.4398 2.52388 14.8513 2.64903 15.2227 2.86349C15.7157 3.14814 16.1064 3.5663 16.3637 4.08165C16.879 4.33888 17.2972 4.72966 17.5818 5.22267C17.7227 5.46661 17.8255 5.73302 17.8889 6.01704C18.2453 6.34892 18.4453 6.79505 18.4453 7.27345C18.4453 7.50224 18.4009 7.72071 18.3211 7.92134C19.067 8.12466 19.6172 8.80771 19.6172 9.6172C19.6172 10.4003 19.1023 11.0652 18.3934 11.2919L17.2699 21.4783C17.2371 21.7752 16.9862 22 16.6875 22H7.3125C7.01375 22 6.76285 21.7752 6.73008 21.4783L5.60656 11.2918ZM8.51582 11.375H6.79477L7.83738 20.8281H9.03715L8.51582 11.375ZM13.7892 20.8281L14.3105 11.375H12.5859V20.8281H13.7892ZM10.2107 20.8281H11.4141V11.375H9.68945L10.2107 20.8281ZM14.9629 20.8281H16.1627L17.2053 11.375H15.4842L14.9629 20.8281ZM7.45109 6.2222C7.43938 6.44802 7.29871 6.64692 7.08973 6.73325C6.8691 6.82439 6.72656 7.03642 6.72656 7.27345C6.72656 7.59653 6.98941 7.85939 7.3125 7.85939H16.6875C17.0106 7.85939 17.2734 7.59653 17.2734 7.27345C17.2734 7.03247 17.1101 6.88079 17.0127 6.81185C16.8813 6.7188 16.7941 6.57583 16.7713 6.41649C16.7394 6.19278 16.6706 5.98825 16.5669 5.80857C16.3742 5.47482 16.0749 5.21857 15.7014 5.06763C15.554 5.0081 15.4372 4.89126 15.3777 4.74392C15.2267 4.3704 14.9705 4.0711 14.6367 3.87841C14.3882 3.73493 14.1041 3.65935 13.7921 3.65368C13.6719 3.65153 13.5554 3.61243 13.4581 3.54177C13.1231 3.29817 12.7698 3.16978 12.4325 3.17192C12.1498 3.17329 11.8481 3.26884 11.5357 3.45599C11.3995 3.53767 11.2359 3.56048 11.0824 3.51915C10.6934 3.41446 10.3001 3.43853 9.94516 3.58872C9.59004 3.73892 9.29894 4.00439 9.10328 4.35638C9.02605 4.49532 8.8957 4.59689 8.74215 4.63786C8.35301 4.74165 8.02449 4.95915 7.79211 5.26681C7.58746 5.53778 7.46953 5.86814 7.45109 6.2222ZM17.8594 9.03126H6.14062C5.81754 9.03126 5.55469 9.29411 5.55469 9.6172C5.55469 9.94028 5.81754 10.2031 6.14062 10.2031H17.8594C18.1825 10.2031 18.4453 9.94028 18.4453 9.6172C18.4453 9.29411 18.1825 9.03126 17.8594 9.03126Z" />
    </symbol>
    <symbol id="microphone" xmlns="http://www.w3.org/2000/svg">
        <path d="M10.1211 11.287L11.369 10.0391L12.201 10.871L10.9531 12.119L10.1211 11.287Z" />
        <path fill-rule="evenodd" clip-rule="evenodd" d="M17.6533 16.3209L16.6707 15.3384C15.8361 14.5038 14.4781 14.5037 13.6433 15.3384L8.68135 20.3003C7.9915 20.9902 6.875 20.9902 6.18512 20.3003L5.274 19.3892C4.85445 18.9697 4.83994 18.3108 5.20614 17.8738C5.86057 18.1833 6.66821 18.0694 7.21042 17.5272L7.69476 17.0428C8.3568 17.3705 9.16275 17.2744 9.72841 16.7754L15.7585 11.4547C16.897 11.405 17.9904 10.9077 18.8596 10.0385C20.6948 8.20325 20.6948 5.2171 18.8596 3.38181C17.0244 1.54656 14.0381 1.54656 12.2029 3.38181C11.3337 4.25115 10.8361 5.34462 10.7865 6.48316L5.46542 12.5137C4.96005 13.0864 4.87532 13.895 5.19822 14.5469L4.71415 15.031C4.17116 15.5741 4.05697 16.3856 4.37089 17.0421C3.5447 17.9439 3.5658 19.3452 4.44197 20.2214L5.35304 21.1325C6.50272 22.2822 8.36367 22.2824 9.51346 21.1325L14.4754 16.1704C14.8512 15.7946 15.4627 15.7946 15.8386 16.1704L16.8212 17.153L17.6533 16.3209ZM6.37838 16.6952C6.14895 16.9245 5.77569 16.9245 5.54626 16.6952C5.31684 16.4657 5.31684 16.0925 5.54626 15.863L5.96232 15.447L6.7944 16.2791L6.37838 16.6952ZM17.5805 9.59157C17.0323 9.99806 16.409 10.2353 15.7688 10.2761L11.9654 6.47265C12.0062 5.83254 12.2434 5.20917 12.6499 4.66089L17.5805 9.59157ZM18.0275 4.21392C19.2622 5.44856 19.3885 7.37733 18.4082 8.75506L13.4864 3.83321C14.8641 2.85294 16.7928 2.97928 18.0275 4.21392ZM6.34778 13.2922L11.3977 7.56906L14.6724 10.8437L8.94984 15.893C8.68853 16.1237 8.29071 16.1112 8.04422 15.8648L6.37602 14.1966C6.12993 13.9505 6.11749 13.5532 6.34778 13.2922Z" />
        <path fill-rule="evenodd" clip-rule="evenodd" d="M5.53024 5.07091V7.8379C5.53024 8.81119 4.7384 9.60302 3.76512 9.60302C2.79183 9.60302 2 8.81119 2 7.8379C2 6.62339 3.20667 5.76723 4.35349 6.17399V3.54443L7.32744 4.32705L7.02796 5.46504L5.53024 5.07091ZM3.17675 7.8379C3.17675 8.16233 3.44069 8.42628 3.76512 8.42628C4.08955 8.42628 4.35349 8.16233 4.35349 7.8379C4.35349 7.51348 4.08955 7.24953 3.76512 7.24953C3.44069 7.24953 3.17675 7.51348 3.17675 7.8379Z" />
    </symbol>
    <symbol id="calendar" xmlns="http://www.w3.org/2000/svg">
        <path d="M19.2 4.8H17.4V3.9C17.4 3.40294 16.9971 3 16.5 3C16.0029 3 15.6 3.40294 15.6 3.9V4.8H8.4V3.9C8.4 3.40294 7.99706 3 7.5 3C7.00294 3 6.6 3.40294 6.6 3.9V4.8H4.8C3.80595 4.8 3 5.60595 3 6.6V19.2C3 20.194 3.80595 21 4.8 21H19.2C20.194 21 21 20.194 21 19.2V6.6C21 5.60595 20.194 4.8 19.2 4.8ZM19.2 19.2H4.8V10.2H19.2V19.2ZM19.2 8.4H4.8V6.6H19.2V8.4Z" />
        <path d="M13.8 12H12V13.8H13.8V12Z" />
        <path d="M17.4 12H15.6V13.8H17.4V12Z" />
        <path d="M13.8 15.6H12V17.4H13.8V15.6Z" />
        <path d="M10.2 15.6H8.4V17.4H10.2V15.6Z" />
    </symbol>
    <symbol id="theatre" xmlns="http://www.w3.org/2000/svg">
        <path fill-rule="evenodd" clip-rule="evenodd" d="M2.625 2H21.375C21.6986 2 21.9609 2.26234 21.9609 2.58594V13.1328C21.9609 13.4564 21.6986 13.7188 21.375 13.7188H2.625C2.30141 13.7188 2.03906 13.4564 2.03906 13.1328V2.58594C2.03906 2.26234 2.30141 2 2.625 2ZM19.6716 8.25H20.7891V3.17188H18.0547V4.12066C18.0547 5.66582 18.6273 7.12277 19.6716 8.25ZM6.91453 11.375C7.01746 11.7545 7.08238 12.1468 7.10637 12.5469H16.8936C16.9176 12.1468 16.9825 11.7545 17.0854 11.375H6.91453ZM6.45391 10.2031H17.5461C17.7146 9.88316 17.9132 9.57859 18.1406 9.29379C15.2601 8.71047 13.0704 6.20031 12.9798 3.17188H11.0202C10.9296 6.20031 8.73992 8.71047 5.85941 9.29379C6.08684 9.57859 6.28547 9.88316 6.45391 10.2031ZM16.8828 4.12066V3.17188H14.152C14.2378 5.5198 15.8662 7.48039 18.0513 8.06902C17.8117 7.69977 17.6055 7.30848 17.435 6.89676C17.0686 6.01219 16.8828 5.07816 16.8828 4.12066ZM6.565 6.8968C6.39445 7.30848 6.18824 7.69977 5.94875 8.06906C8.13383 7.48039 9.76219 5.5198 9.84801 3.17188H7.11719V4.12066C7.11719 5.07816 6.93141 6.01219 6.565 6.8968ZM5.94531 3.17188H3.21094V8.25H4.3284C5.37266 7.12277 5.94531 5.66582 5.94531 4.12066V3.17188ZM3.21094 9.42188V12.5469H5.93207C5.84102 11.3376 5.28352 10.2224 4.36578 9.42188H3.21094ZM18.0679 12.5469H20.7891V9.42188H19.6342C18.7165 10.2224 18.159 11.3376 18.0679 12.5469Z" />
        <path fill-rule="evenodd" clip-rule="evenodd" d="M17.625 14.9688C18.9664 14.9688 20.0598 16.0477 20.0848 17.3833C21.1603 17.6465 21.9609 18.618 21.9609 19.7733V21.4141C21.9609 21.7377 21.6986 22 21.375 22H2.625C2.30141 22 2.03906 21.7377 2.03906 21.4141V19.7733C2.03906 18.618 2.83973 17.6465 3.91523 17.3833C3.94016 16.0477 5.03359 14.9688 6.375 14.9688C7.12555 14.9688 7.79824 15.3069 8.25 15.8384C8.70176 15.3069 9.37445 14.9688 10.125 14.9688C10.8756 14.9688 11.5482 15.3069 12 15.8384C12.4518 15.3069 13.1245 14.9688 13.875 14.9688C14.6255 14.9688 15.2982 15.3069 15.75 15.8384C16.2018 15.3069 16.8745 14.9688 17.625 14.9688ZM3.21094 19.7733V20.8281H5.78906V19.7733C5.78906 19.0627 5.21078 18.4844 4.5 18.4844C3.78922 18.4844 3.21094 19.0627 3.21094 19.7733ZM5.08711 17.3837C5.59719 17.5091 6.04504 17.7939 6.375 18.1821C6.70496 17.7939 7.15281 17.5091 7.66289 17.3837C7.63863 16.6941 7.07039 16.1406 6.375 16.1406C5.67961 16.1406 5.11137 16.6941 5.08711 17.3837ZM6.96094 19.7733V20.8281H9.53906V19.7733C9.53906 19.0627 8.96078 18.4844 8.25 18.4844C7.53922 18.4844 6.96094 19.0627 6.96094 19.7733ZM8.83711 17.3837C9.34719 17.5091 9.79504 17.7939 10.125 18.1821C10.455 17.7939 10.9028 17.5091 11.4129 17.3837C11.3886 16.6941 10.8204 16.1406 10.125 16.1406C9.42961 16.1406 8.86137 16.6941 8.83711 17.3837ZM10.7109 20.8281H13.2891V19.7733C13.2891 19.0627 12.7108 18.4844 12 18.4844C11.2892 18.4844 10.7109 19.0627 10.7109 19.7733V20.8281ZM12.5871 17.3837C13.0972 17.5091 13.545 17.7939 13.875 18.1821C14.205 17.7939 14.6528 17.5091 15.1629 17.3837C15.1386 16.6941 14.5704 16.1406 13.875 16.1406C13.1796 16.1406 12.6114 16.6941 12.5871 17.3837ZM14.4609 19.7733V20.8281H17.0391V19.7733C17.0391 19.0627 16.4608 18.4844 15.75 18.4844C15.0392 18.4844 14.4609 19.0627 14.4609 19.7733ZM16.3371 17.3837C16.8472 17.5091 17.295 17.7939 17.625 18.1821C17.955 17.7939 18.4028 17.5091 18.9129 17.3837C18.8886 16.6941 18.3204 16.1406 17.625 16.1406C16.9296 16.1406 16.3614 16.6941 16.3371 17.3837ZM18.2109 19.7733V20.8281H20.7891V19.7733C20.7891 19.0627 20.2108 18.4844 19.5 18.4844C18.7892 18.4844 18.2109 19.0627 18.2109 19.7733Z" />
    </symbol>
    <symbol id="ball" xmlns="http://www.w3.org/2000/svg">
        <path d="M19.0711 4.92891C17.1823 3.0402 14.6711 2 12 2C9.32891 2 6.8177 3.0402 4.92891 4.92891C3.0402 6.8177 2 9.32891 2 12C2 14.6711 3.0402 17.1823 4.92891 19.0711C6.8177 20.9598 9.32891 22 12 22C13.8286 22 15.6178 21.5017 17.1743 20.5589C17.5433 20.3353 17.6613 19.8549 17.4377 19.4859C17.2141 19.1168 16.7338 18.9989 16.3647 19.2224C15.275 19.8825 14.0493 20.2839 12.7812 20.4012V12.7812H15.5884C15.6711 13.8574 15.925 14.9029 16.3469 15.8986C16.4731 16.1964 16.7623 16.3752 17.0666 16.3752C17.1682 16.3752 17.2716 16.3552 17.3711 16.3131C17.7684 16.1447 17.9539 15.6862 17.7856 15.2889C17.4459 14.4872 17.2357 13.6466 17.1567 12.7812H20.4009C20.2708 14.1678 19.7955 15.5032 19.0068 16.683C18.767 17.0417 18.8634 17.5269 19.222 17.7667C19.5808 18.0066 20.0659 17.9101 20.3057 17.5514C21.4141 15.8935 22 13.9739 22 12C22 9.32891 20.9598 6.8177 19.0711 4.92891ZM3.59902 12.7812H6.84266C6.69992 14.3145 6.13992 15.7829 5.22316 17.0207C4.32652 15.8136 3.74461 14.3597 3.59902 12.7812ZM11.2188 20.401C9.32465 20.2263 7.61004 19.423 6.28582 18.2021C7.51676 16.6461 8.25559 14.7559 8.41055 12.7813H11.2188V20.401ZM11.2188 11.2188H8.41148C8.32996 10.158 8.08207 9.1268 7.67094 8.14383C7.50441 7.74582 7.04691 7.55797 6.64871 7.72457C6.25066 7.89105 6.06297 8.34875 6.22945 8.74676C6.56031 9.53773 6.76551 10.3664 6.84332 11.2187H3.59902C3.97082 7.18855 7.18859 3.97082 11.2188 3.59898V11.2188ZM15.5894 11.2187H12.7812V3.59898C14.6752 3.77371 16.3898 4.57684 17.7139 5.7977C16.4821 7.35457 15.7441 9.24223 15.5894 11.2187ZM17.1572 11.2188C17.2996 9.68414 17.8598 8.21781 18.7771 6.97957C19.6736 8.18664 20.2554 9.64043 20.401 11.2188H17.1572Z" />
    </symbol>
    <symbol id="favorite" xmlns="http://www.w3.org/2000/svg">
        <path d="M11.999 20C15.6916 18.4228 18.364 15.7303 19.8056 13.0039C21.2249 10.2889 21.4245 7.58507 20.1604 5.96279C19.0182 4.5095 17.5323 3.95747 16.0243 4.00253C14.5162 4.0476 13.0524 4.71228 11.999 5.64734C10.9456 4.71228 9.48183 4.0476 7.97375 4.00253C6.46566 3.95747 4.97976 4.5095 3.83761 5.96279C2.57348 7.58507 2.77308 10.2889 4.21463 13.0039C5.634 15.7303 8.30642 18.4228 11.999 20Z" />
    </symbol>
</svg>
